<svg id="Layer_1" data-name="Layer 1" xmlns="http://www.w3.org/2000/svg" xmlns:xlink="http://www.w3.org/1999/xlink" viewBox="0 0 661.96 585.07"><defs><style>.cls-1,.cls-13,.cls-19,.cls-5{fill:none;}.cls-2{clip-path:url(#clip-path);}.cls-3{opacity:0.9;}.cls-4{clip-path:url(#clip-path-3);}.cls-13,.cls-19,.cls-5{stroke:#211a19;}.cls-5{stroke-miterlimit:10;stroke-width:0.8px;}.cls-6{clip-path:url(#clip-path-4);}.cls-7{clip-path:url(#clip-path-5);}.cls-8{clip-path:url(#clip-path-6);}.cls-9{clip-path:url(#clip-path-7);}.cls-10{clip-path:url(#clip-path-8);}.cls-11{clip-path:url(#clip-path-9);}.cls-12{clip-path:url(#clip-path-10);}.cls-13{stroke-miterlimit:10;stroke-width:0.8px;}.cls-14{clip-path:url(#clip-path-11);}.cls-15{clip-path:url(#clip-path-12);}.cls-16{clip-path:url(#clip-path-13);}.cls-17{clip-path:url(#clip-path-14);}.cls-18{clip-path:url(#clip-path-15);}.cls-19{stroke-miterlimit:10;stroke-width:0.8px;}.cls-20{clip-path:url(#clip-path-16);}.cls-21{clip-path:url(#clip-path-17);}.cls-22{clip-path:url(#clip-path-18);}.cls-23{clip-path:url(#clip-path-19);}.cls-24{clip-path:url(#clip-path-20);}.cls-25{clip-path:url(#clip-path-21);}.cls-26{clip-path:url(#clip-path-22);}.cls-27{clip-path:url(#clip-path-23);}.cls-28{clip-path:url(#clip-path-24);}</style><clipPath id="clip-path"><rect class="cls-1" width="661.96" height="585.07"/></clipPath><clipPath id="clip-path-3"><rect class="cls-1" y="201.03" width="661.96" height="309.65"/></clipPath><clipPath id="clip-path-4"><rect class="cls-1" x="2.68" y="202.96" width="647.02" height="299.76"/></clipPath><clipPath id="clip-path-5"><rect class="cls-1" x="5.23" y="203.53" width="632.36" height="292.6"/></clipPath><clipPath id="clip-path-6"><rect class="cls-1" x="7.63" y="202.61" width="617.98" height="288.4"/></clipPath><clipPath id="clip-path-7"><rect class="cls-1" x="9.87" y="200.17" width="603.91" height="287.25"/></clipPath><clipPath id="clip-path-8"><rect class="cls-1" x="11.95" y="196.2" width="590.18" height="289.17"/></clipPath><clipPath id="clip-path-9"><rect class="cls-1" x="13.85" y="190.72" width="576.8" height="294.09"/></clipPath><clipPath id="clip-path-10"><rect class="cls-1" x="15.56" y="183.82" width="563.8" height="301.87"/></clipPath><clipPath id="clip-path-11"><rect class="cls-1" x="17.08" y="175.58" width="551.2" height="312.31"/></clipPath><clipPath id="clip-path-12"><rect class="cls-1" x="18.37" y="166.14" width="539.04" height="325.15"/></clipPath><clipPath id="clip-path-13"><rect class="cls-1" x="19.43" y="155.63" width="527.33" height="340.14"/></clipPath><clipPath id="clip-path-14"><rect class="cls-1" x="20.25" y="144.19" width="516.12" height="356.99"/></clipPath><clipPath id="clip-path-15"><rect class="cls-1" x="20.81" y="131.94" width="505.43" height="375.46"/></clipPath><clipPath id="clip-path-16"><rect class="cls-1" x="21.09" y="119" width="495.29" height="395.31"/></clipPath><clipPath id="clip-path-17"><rect class="cls-1" x="21.07" y="105.47" width="485.75" height="416.35"/></clipPath><clipPath id="clip-path-18"><rect class="cls-1" x="20.74" y="91.43" width="476.84" height="438.39"/></clipPath><clipPath id="clip-path-19"><rect class="cls-1" x="20.07" y="76.96" width="468.59" height="461.3"/></clipPath><clipPath id="clip-path-20"><rect class="cls-1" x="19.06" y="62.13" width="461.04" height="484.95"/></clipPath><clipPath id="clip-path-21"><rect class="cls-1" x="17.67" y="46.97" width="454.24" height="509.23"/></clipPath><clipPath id="clip-path-22"><rect class="cls-1" x="15.9" y="31.54" width="448.2" height="534.06"/></clipPath><clipPath id="clip-path-23"><rect class="cls-1" x="13.73" y="15.87" width="442.97" height="559.36"/></clipPath><clipPath id="clip-path-24"><rect class="cls-1" x="11.14" width="438.57" height="585.07"/></clipPath></defs><g class="cls-2"><g id="Group_912" data-name="Group 912"><g id="Group_911" data-name="Group 911" class="cls-3"><g id="Group_910" data-name="Group 910"><g class="cls-2"><g id="Group_909" data-name="Group 909"><g id="Group_845" data-name="Group 845"><g id="Group_844" data-name="Group 844"><g class="cls-4"><g id="Group_843" data-name="Group 843"><path id="Path_562" data-name="Path 562" class="cls-5" d="M660.66,379.68c-6.06,83.85-158.57,141.16-340.64,128S-4.75,415.88,1.31,332,159.87,190.88,342,204,666.71,295.83,660.66,379.68Z"/></g></g></g></g><g id="Group_848" data-name="Group 848"><g id="Group_847" data-name="Group 847"><g class="cls-6"><g id="Group_846" data-name="Group 846"><path id="Path_563" data-name="Path 563" class="cls-5" d="M648.56,362.21c-2.38,82-148.64,144.26-326.68,139.09S1.45,425.47,3.83,343.48,152.47,199.21,330.5,204.38,650.94,280.22,648.56,362.21Z"/></g></g></g></g><g id="Group_851" data-name="Group 851"><g id="Group_850" data-name="Group 850"><g class="cls-7"><g id="Group_849" data-name="Group 849"><path id="Path_564" data-name="Path 564" class="cls-5" d="M636.46,344.73c1.3,80.13-138.71,147.37-312.71,150.19S7.65,435.05,6.36,354.92s138.71-147.37,312.7-150.18S635.16,264.6,636.46,344.73Z"/></g></g></g></g><g id="Group_854" data-name="Group 854"><g id="Group_853" data-name="Group 853"><g class="cls-8"><g id="Group_852" data-name="Group 852"><path id="Path_565" data-name="Path 565" class="cls-5" d="M624.35,327.26c5,78.27-128.78,150.47-298.73,161.27S13.85,444.64,8.88,366.36,137.66,215.89,307.62,205.09,619.38,249,624.35,327.26Z"/></g></g></g></g><g id="Group_857" data-name="Group 857"><g id="Group_856" data-name="Group 856"><g class="cls-9"><g id="Group_855" data-name="Group 855"><path id="Path_566" data-name="Path 566" class="cls-5" d="M612.25,309.78c8.64,76.41-118.85,153.58-284.77,172.37S20.05,454.22,11.41,377.81,130.26,224.23,296.17,205.44,603.61,233.37,612.25,309.78Z"/></g></g></g></g><g id="Group_860" data-name="Group 860"><g id="Group_859" data-name="Group 859"><g class="cls-10"><g id="Group_858" data-name="Group 858"><path id="Path_567" data-name="Path 567" class="cls-5" d="M600.15,292.31C612.47,366.86,491.23,449,329.35,475.77s-303.1-12-315.42-86.51S122.85,232.57,284.73,205.8,587.83,217.76,600.15,292.31Z"/></g></g></g></g><g id="Group_863" data-name="Group 863"><g id="Group_862" data-name="Group 862"><g class="cls-11"><g id="Group_861" data-name="Group 861"><path id="Path_568" data-name="Path 568" class="cls-5" d="M588.05,274.83c16,72.69-99,159.79-256.84,194.55s-298.76,4-314.75-68.68,99-159.8,256.83-194.55S572.05,202.14,588.05,274.83Z"/></g></g></g></g><g id="Group_866" data-name="Group 866"><g id="Group_865" data-name="Group 865"><g class="cls-12"><g id="Group_864" data-name="Group 864"><ellipse id="Ellipse_2" data-name="Ellipse 2" class="cls-13" cx="297.46" cy="334.75" rx="289.04" ry="133.1" transform="translate(-78.78 91.89) rotate(-15.53)"/></g></g></g></g><g id="Group_869" data-name="Group 869"><g id="Group_868" data-name="Group 868"><g class="cls-14"><g id="Group_867" data-name="Group 867"><path id="Path_569" data-name="Path 569" class="cls-5" d="M563.84,239.88c23.35,69-79.13,166-228.89,216.74s-290.1,35.94-313.44-33,79.13-166,228.89-216.74S540.49,170.91,563.84,239.88Z"/></g></g></g></g><g id="Group_872" data-name="Group 872"><g id="Group_871" data-name="Group 871"><g class="cls-15"><g id="Group_870" data-name="Group 870"><path id="Path_570" data-name="Path 570" class="cls-5" d="M551.74,222.41c27,67.11-69.2,169.11-214.93,227.82S51.06,502.14,24,435,93.24,265.92,239,207.21,524.72,155.3,551.74,222.41Z"/></g></g></g></g><g id="Group_875" data-name="Group 875"><g id="Group_874" data-name="Group 874"><g class="cls-16"><g id="Group_873" data-name="Group 873"><path id="Path_571" data-name="Path 571" class="cls-5" d="M539.64,204.93c30.7,65.25-59.28,172.22-201,238.92S57.26,511.72,26.56,446.48s59.28-172.22,201-238.92S508.94,139.68,539.64,204.93Z"/></g></g></g></g><g id="Group_878" data-name="Group 878"><g id="Group_877" data-name="Group 877"><g class="cls-17"><g id="Group_876" data-name="Group 876"><path id="Path_572" data-name="Path 572" class="cls-5" d="M527.53,187.46c34.37,63.39-49.34,175.32-187,250S63.45,521.31,29.08,457.92s49.35-175.32,187-250S493.17,124.07,527.53,187.46Z"/></g></g></g></g><g id="Group_881" data-name="Group 881"><g id="Group_880" data-name="Group 880"><g class="cls-18"><g id="Group_879" data-name="Group 879"><ellipse id="Ellipse_3" data-name="Ellipse 3" class="cls-19" cx="273.4" cy="319.71" rx="284.36" ry="130.93" transform="translate(-127.32 191.71) rotate(-31.75)"/></g></g></g></g><g id="Group_884" data-name="Group 884"><g id="Group_883" data-name="Group 883"><g class="cls-20"><g id="Group_882" data-name="Group 882"><path id="Path_573" data-name="Path 573" class="cls-5" d="M503.33,152.51c41.72,59.67-29.49,181.53-159,272.19S75.86,540.48,34.14,480.81,63.63,299.28,193.19,208.62,461.61,92.84,503.33,152.51Z"/></g></g></g></g><g id="Group_887" data-name="Group 887"><g id="Group_886" data-name="Group 886"><g class="cls-21"><g id="Group_885" data-name="Group 885"><path id="Path_574" data-name="Path 574" class="cls-5" d="M491.23,135c45.4,57.81-19.56,184.64-145.08,283.28S82.06,550.06,36.66,492.25,56.22,307.61,181.75,209,445.84,77.22,491.23,135Z"/></g></g></g></g><g id="Group_890" data-name="Group 890"><g id="Group_889" data-name="Group 889"><g class="cls-22"><g id="Group_888" data-name="Group 888"><path id="Path_575" data-name="Path 575" class="cls-5" d="M479.13,117.56C528.2,173.51,469.5,305.3,348,411.93S88.26,559.65,39.19,503.7,48.82,316,170.31,209.32,430.06,61.61,479.13,117.56Z"/></g></g></g></g><g id="Group_893" data-name="Group 893"><g id="Group_892" data-name="Group 892"><g class="cls-23"><g id="Group_891" data-name="Group 891"><path id="Path_576" data-name="Path 576" class="cls-5" d="M467,100.08c52.74,54.09.3,190.85-117.15,305.46S94.46,569.23,41.71,515.14s-.3-190.85,117.16-305.47S414.28,46,467,100.08Z"/></g></g></g></g><g id="Group_896" data-name="Group 896"><g id="Group_895" data-name="Group 895"><g class="cls-24"><g id="Group_894" data-name="Group 894"><path id="Path_577" data-name="Path 577" class="cls-5" d="M454.92,82.61c56.43,52.23,10.23,194-103.18,316.55S100.66,578.81,44.24,526.59,34,332.63,147.42,210,398.5,30.38,454.92,82.61Z"/></g></g></g></g><g id="Group_899" data-name="Group 899"><g id="Group_898" data-name="Group 898"><g class="cls-25"><g id="Group_897" data-name="Group 897"><path id="Path_578" data-name="Path 578" class="cls-5" d="M442.82,65.13c60.1,50.37,20.16,197.06-89.21,327.65S106.86,588.4,46.76,538,26.61,341,136,210.38,382.73,14.76,442.82,65.13Z"/></g></g></g></g><g id="Group_902" data-name="Group 902"><g id="Group_901" data-name="Group 901"><g class="cls-26"><g id="Group_900" data-name="Group 900"><path id="Path_579" data-name="Path 579" class="cls-5" d="M430.72,47.66c63.77,48.51,30.08,200.17-75.25,338.74S113.06,598,49.29,549.47,19.21,349.31,124.54,210.74,367-.85,430.72,47.66Z"/></g></g></g></g><g id="Group_905" data-name="Group 905"><g id="Group_904" data-name="Group 904"><g class="cls-27"><g id="Group_903" data-name="Group 903"><path id="Path_580" data-name="Path 580" class="cls-5" d="M418.62,30.18c67.44,46.65,40,203.28-61.28,349.83S119.26,607.57,51.81,560.92s-40-203.27,61.28-349.83S351.17-16.46,418.62,30.18Z"/></g></g></g></g><g id="Group_908" data-name="Group 908"><g id="Group_907" data-name="Group 907"><g class="cls-28"><g id="Group_906" data-name="Group 906"><path id="Path_581" data-name="Path 581" class="cls-5" d="M406.52,12.71c71.12,44.79,49.94,206.38-47.31,360.92S125.46,617.15,54.34,572.36,4.4,366,101.65,211.44,335.4-32.08,406.52,12.71Z"/></g></g></g></g></g></g></g></g></g></g></svg>