<svg id="Layer_1" data-name="Layer 1" xmlns="http://www.w3.org/2000/svg" xmlns:xlink="http://www.w3.org/1999/xlink" viewBox="0 0 812.1 811.57"><defs><style>.cls-1{fill:none;}.cls-2{opacity:0.15;}.cls-3{clip-path:url(#clip-path);}.cls-4{opacity:0.9;}.cls-5{opacity:0.1;}.cls-6{clip-path:url(#clip-path-4);}.cls-7{clip-path:url(#clip-path-5);}.cls-8{fill:#211a19;}.cls-9{clip-path:url(#clip-path-6);}.cls-10{clip-path:url(#clip-path-7);}.cls-11{clip-path:url(#clip-path-8);}.cls-12{clip-path:url(#clip-path-9);}.cls-13{clip-path:url(#clip-path-10);}.cls-14{clip-path:url(#clip-path-11);}.cls-15{clip-path:url(#clip-path-12);}.cls-16{clip-path:url(#clip-path-13);}.cls-17{clip-path:url(#clip-path-14);}.cls-18{clip-path:url(#clip-path-15);}.cls-19{clip-path:url(#clip-path-16);}.cls-20{clip-path:url(#clip-path-17);}.cls-21{clip-path:url(#clip-path-18);}.cls-22{clip-path:url(#clip-path-19);}.cls-23{clip-path:url(#clip-path-20);}.cls-24{clip-path:url(#clip-path-21);}.cls-25{clip-path:url(#clip-path-22);}.cls-26{clip-path:url(#clip-path-23);}.cls-27{clip-path:url(#clip-path-24);}.cls-28{clip-path:url(#clip-path-25);}.cls-29{clip-path:url(#clip-path-26);}</style><clipPath id="clip-path"><rect class="cls-1" x="110.63" y="109.59" width="590.85" height="592.39" transform="translate(-150.92 544.81) rotate(-59)"/></clipPath><clipPath id="clip-path-4"><rect class="cls-1" x="109.32" y="112.17" width="587.6" height="587.51" transform="translate(-152.45 542.37) rotate(-59)"/></clipPath><clipPath id="clip-path-5"><rect class="cls-1" x="106.37" y="402.4" width="587.6" height="3.5" transform="translate(-152.36 538.98) rotate(-59)"/></clipPath><clipPath id="clip-path-6"><rect class="cls-1" x="116.87" y="396.28" width="559.62" height="27.98" transform="translate(-159.3 538.96) rotate(-59)"/></clipPath><clipPath id="clip-path-7"><rect class="cls-1" x="127.38" y="388.41" width="531.64" height="55.95" transform="matrix(0.52, -0.86, 0.86, 0.52, -166.24, 538.94)"/></clipPath><clipPath id="clip-path-8"><rect class="cls-1" x="137.88" y="380.55" width="503.66" height="83.93" transform="translate(-173.17 538.92) rotate(-59)"/></clipPath><clipPath id="clip-path-9"><rect class="cls-1" x="148.39" y="372.68" width="475.68" height="111.91" transform="translate(-180.11 538.9) rotate(-59)"/></clipPath><clipPath id="clip-path-10"><rect class="cls-1" x="158.89" y="364.81" width="447.7" height="139.88" transform="translate(-187.05 538.88) rotate(-59)"/></clipPath><clipPath id="clip-path-11"><rect class="cls-1" x="169.39" y="356.94" width="419.72" height="167.86" transform="translate(-193.98 538.86) rotate(-59)"/></clipPath><clipPath id="clip-path-12"><rect class="cls-1" x="179.9" y="349.07" width="391.73" height="195.84" transform="translate(-200.92 538.84) rotate(-59)"/></clipPath><clipPath id="clip-path-13"><rect class="cls-1" x="190.4" y="341.2" width="363.75" height="223.81" transform="translate(-207.86 538.81) rotate(-59)"/></clipPath><clipPath id="clip-path-14"><rect class="cls-1" x="200.9" y="333.34" width="335.77" height="251.79" transform="translate(-214.79 538.79) rotate(-59)"/></clipPath><clipPath id="clip-path-15"><rect class="cls-1" x="211.41" y="325.47" width="307.79" height="279.76" transform="translate(-221.73 538.77) rotate(-59)"/></clipPath><clipPath id="clip-path-16"><rect class="cls-1" x="221.91" y="317.6" width="279.81" height="307.74" transform="translate(-228.67 538.75) rotate(-59)"/></clipPath><clipPath id="clip-path-17"><rect class="cls-1" x="232.42" y="309.73" width="251.83" height="335.72" transform="translate(-235.6 538.73) rotate(-59)"/></clipPath><clipPath id="clip-path-18"><rect class="cls-1" x="242.92" y="301.86" width="223.85" height="363.69" transform="translate(-242.54 538.71) rotate(-59)"/></clipPath><clipPath id="clip-path-19"><rect class="cls-1" x="253.42" y="294" width="195.87" height="391.67" transform="translate(-249.48 538.69) rotate(-59)"/></clipPath><clipPath id="clip-path-20"><rect class="cls-1" x="263.93" y="286.13" width="167.88" height="419.65" transform="translate(-256.41 538.67) rotate(-59)"/></clipPath><clipPath id="clip-path-21"><rect class="cls-1" x="274.43" y="278.26" width="139.9" height="447.62" transform="translate(-263.35 538.65) rotate(-59)"/></clipPath><clipPath id="clip-path-22"><rect class="cls-1" x="284.93" y="270.39" width="111.92" height="475.6" transform="matrix(0.52, -0.86, 0.86, 0.52, -270.29, 538.63)"/></clipPath><clipPath id="clip-path-23"><rect class="cls-1" x="295.44" y="262.52" width="83.94" height="503.58" transform="matrix(0.52, -0.86, 0.86, 0.52, -277.22, 538.61)"/></clipPath><clipPath id="clip-path-24"><rect class="cls-1" x="305.94" y="254.66" width="55.96" height="531.55" transform="translate(-284.16 538.59) rotate(-59)"/></clipPath><clipPath id="clip-path-25"><rect class="cls-1" x="316.45" y="246.79" width="27.98" height="559.53" transform="translate(-291.1 538.57) rotate(-59)"/></clipPath><clipPath id="clip-path-26"><rect class="cls-1" x="325.42" y="238.92" width="3.07" height="587.51" transform="translate(-298.03 538.54) rotate(-59)"/></clipPath></defs><g id="Group_2291" data-name="Group 2291"><g class="cls-2"><g class="cls-3"><g id="Group_2206" data-name="Group 2206"><g id="Group_2205" data-name="Group 2205"><g class="cls-3"><g id="Group_2204" data-name="Group 2204"><g id="Group_2203" data-name="Group 2203" class="cls-4"><g id="Group_2202" data-name="Group 2202"><g class="cls-3"><g id="Group_2201" data-name="Group 2201"><g id="Group_2200" data-name="Group 2200" class="cls-5"><g id="Group_2199" data-name="Group 2199"><g class="cls-6"><g id="Group_2198" data-name="Group 2198"><g id="Group_2134" data-name="Group 2134"><g id="Group_2133" data-name="Group 2133"><g class="cls-7"><g id="Group_2132" data-name="Group 2132"><path id="Path_649" data-name="Path 649" class="cls-8" d="M248.84,656l38.56-62.52,38.25-62.71,76-125.7L477,278.93l37.42-63.21,37.09-63.4-38.56,62.51-38.26,62.71-76,125.71L323.35,529.37l-37.41,63.21Z"/></g></g></g></g><g id="Group_2137" data-name="Group 2137"><g id="Group_2136" data-name="Group 2136"><g class="cls-9"><g id="Group_2135" data-name="Group 2135"><path id="Path_650" data-name="Path 650" class="cls-8" d="M240.57,642.9l39.73-57.69,39.43-57.88,78.4-116.09L475.85,294.7l38.63-58.42,38.32-58.64-39.74,57.68-39.43,57.89L395.24,409.3,317.52,525.84l-38.63,58.43Z"/></g></g></g></g><g id="Group_2140" data-name="Group 2140"><g id="Group_2139" data-name="Group 2139"><g class="cls-10"><g id="Group_2138" data-name="Group 2138"><path id="Path_651" data-name="Path 651" class="cls-8" d="M232.3,629.82,273.2,577l40.61-53.07,80.77-106.47,80.13-106.95,39.84-53.66L554.1,203,513.2,255.8l-40.62,53.07L391.82,415.35l-80.13,107L271.85,576Z"/></g></g></g></g><g id="Group_2143" data-name="Group 2143"><g id="Group_2142" data-name="Group 2142"><g class="cls-11"><g id="Group_2141" data-name="Group 2141"><path id="Path_652" data-name="Path 652" class="cls-8" d="M224,616.75l42-48,41.79-48.25L391,423.63l82.54-97.38,41.05-48.87,40.78-49.11-42.06,48-41.79,48.25L388.4,421.39l-82.54,97.38-41.05,48.87Z"/></g></g></g></g><g id="Group_2146" data-name="Group 2146"><g id="Group_2145" data-name="Group 2145"><g class="cls-12"><g id="Group_2144" data-name="Group 2144"><path id="Path_653" data-name="Path 653" class="cls-8" d="M215.76,603.67,259,560.49l43-43.43,85.52-87.24L472.4,342l42.27-44.1,42-44.34-43.22,43.18-43,43.42L385,427.44l-84.95,87.8-42.27,44.09Z"/></g></g></g></g><g id="Group_2149" data-name="Group 2149"><g id="Group_2148" data-name="Group 2148"><g class="cls-13"><g id="Group_2147" data-name="Group 2147"><path id="Path_654" data-name="Path 654" class="cls-8" d="M207.49,590.59l44.36-38.34L296,513.65,383.87,436l87.36-78.21,43.5-39.32L558,278.91l-44.37,38.34-44.13,38.6-87.88,77.63L294.24,511.7,250.75,551Z"/></g></g></g></g><g id="Group_2152" data-name="Group 2152"><g id="Group_2151" data-name="Group 2151"><g class="cls-14"><g id="Group_2150" data-name="Group 2150"><path id="Path_655" data-name="Path 655" class="cls-8" d="M199.22,577.52,244.72,544,290,510.22l90.26-68,89.78-68.63,44.71-34.53,44.51-34.82-45.5,33.5-45.3,33.78-90.25,68-89.78,68.63L243.73,542.7Z"/></g></g></g></g><g id="Group_2155" data-name="Group 2155"><g id="Group_2154" data-name="Group 2154"><g class="cls-15"><g id="Group_2153" data-name="Group 2153"><path id="Path_656" data-name="Path 656" class="cls-8" d="M191,564.44l46.64-28.67,46.45-29,92.62-58.39,92.21-59.05,46-29.76,45.76-30.06-46.64,28.67-46.46,29-92.62,58.39-92.19,59.06-46,29.76Z"/></g></g></g></g><g id="Group_2158" data-name="Group 2158"><g id="Group_2157" data-name="Group 2157"><g class="cls-16"><g id="Group_2156" data-name="Group 2156"><path id="Path_657" data-name="Path 657" class="cls-8" d="M182.68,551.36l47.77-23.84,47.61-24.15,95-48.78,94.62-49.46,47.18-25,47-25.29L514.1,378.7l-47.61,24.14-95,48.79L276.89,501.1l-47.19,25Z"/></g></g></g></g><g id="Group_2161" data-name="Group 2161"><g id="Group_2160" data-name="Group 2160"><g class="cls-17"><g id="Group_2159" data-name="Group 2159"><path id="Path_658" data-name="Path 658" class="cls-8" d="M174.41,538.29l48.9-19,48.77-19.33,97.34-39.17,97-39.88,48.42-20.2,48.29-20.51-48.9,19L465.5,418.52,368.17,457.7l-97.05,39.88L222.7,517.77Z"/></g></g></g></g><g id="Group_2164" data-name="Group 2164"><g id="Group_2163" data-name="Group 2163"><g class="cls-18"><g id="Group_2162" data-name="Group 2162"><path id="Path_659" data-name="Path 659" class="cls-8" d="M166.14,525.21l50-14.2,49.92-14.52,99.7-29.56,99.47-30.29,49.66-15.41,49.56-15.74-50,14.2-49.92,14.52-99.69,29.57-99.48,30.29-49.66,15.41Z"/></g></g></g></g><g id="Group_2167" data-name="Group 2167"><g id="Group_2166" data-name="Group 2166"><g class="cls-19"><g id="Group_2165" data-name="Group 2165"><path id="Path_660" data-name="Path 660" class="cls-8" d="M157.86,512.13,209,502.75,260.09,493l102-20L464,452.38l50.89-10.62,50.84-10.95-51.15,9.38-51.08,9.71-102.05,20-101.9,20.7-50.9,10.61Z"/></g></g></g></g><g id="Group_2170" data-name="Group 2170"><g id="Group_2169" data-name="Group 2169"><g class="cls-20"><g id="Group_2168" data-name="Group 2168"><path id="Path_661" data-name="Path 661" class="cls-8" d="M149.6,499.06l52.26-4.58,52.23-4.92L358.5,479.21l104.32-11.1L515,462.29l52.1-6.16L514.8,460.7l-52.24,4.91L358.16,476,253.83,487.08l-52.14,5.82Z"/></g></g></g></g><g id="Group_2173" data-name="Group 2173"><g id="Group_2172" data-name="Group 2172"><g class="cls-21"><g id="Group_2171" data-name="Group 2171"><path id="Path_662" data-name="Path 662" class="cls-8" d="M141.32,486l53.39.22,53.38-.12,106.77-.76,106.75-1.5,53.38-1,53.37-1.35L515,481.22l-53.38.12-106.76.76-106.75,1.51-53.39,1Z"/></g></g></g></g><g id="Group_2176" data-name="Group 2176"><g id="Group_2175" data-name="Group 2175"><g class="cls-22"><g id="Group_2174" data-name="Group 2174"><path id="Path_663" data-name="Path 663" class="cls-8" d="M133.05,472.9l54.52,5,54.54,4.69,109.12,8.83,109.18,8.1L515,503.32l54.64,3.44-54.52-5-54.54-4.68-109.12-8.83L242.3,480.14l-54.61-3.78Z"/></g></g></g></g><g id="Group_2179" data-name="Group 2179"><g id="Group_2178" data-name="Group 2178"><g class="cls-23"><g id="Group_2177" data-name="Group 2177"><path id="Path_664" data-name="Path 664" class="cls-8" d="M124.78,459.83l55.65,9.79,55.7,9.48,111.49,18.43,111.6,17.7,55.84,8.59,55.9,8.26-55.65-9.8-55.7-9.48L348.13,494.38l-111.61-17.7-55.84-8.59Z"/></g></g></g></g><g id="Group_2182" data-name="Group 2182"><g id="Group_2181" data-name="Group 2181"><g class="cls-24"><g id="Group_2180" data-name="Group 2180"><path id="Path_665" data-name="Path 665" class="cls-8" d="M116.51,446.75l56.79,14.58,56.86,14.26,113.85,28,114,27.31,57.07,13.4,57.15,13.08-56.78-14.59-56.86-14.26-113.85-28-114-27.3-57.07-13.4Z"/></g></g></g></g><g id="Group_2185" data-name="Group 2185"><g id="Group_2184" data-name="Group 2184"><g class="cls-25"><g id="Group_2183" data-name="Group 2183"><path id="Path_666" data-name="Path 666" class="cls-8" d="M108.24,433.67,166.17,453l58,19.05,116.21,37.61,116.44,36.92,58.3,18.21,58.4,17.89-57.93-19.36-58-19.05L341.37,506.7,224.94,469.78l-58.3-18.21Z"/></g></g></g></g><g id="Group_2188" data-name="Group 2188"><g id="Group_2187" data-name="Group 2187"><g class="cls-26"><g id="Group_2186" data-name="Group 2186"><path id="Path_667" data-name="Path 667" class="cls-8" d="M100,420.6l59.08,24.13,59.2,23.84,118.59,47.2,118.85,46.52,59.52,23L574.85,608l-59.08-24.14-59.2-23.84L338,512.86,219.13,466.34l-59.52-23Z"/></g></g></g></g><g id="Group_2191" data-name="Group 2191"><g id="Group_2190" data-name="Group 2190"><g class="cls-27"><g id="Group_2189" data-name="Group 2189"><path id="Path_668" data-name="Path 668" class="cls-8" d="M91.7,407.52l60.24,28.91,60.37,28.63,121,56.78L454.53,578l60.74,27.84,60.87,27.54-60.23-28.92-60.37-28.62L334.58,519,213.32,462.9l-60.74-27.84Z"/></g></g></g></g><g id="Group_2194" data-name="Group 2194"><g id="Group_2193" data-name="Group 2193"><g class="cls-28"><g id="Group_2192" data-name="Group 2192"><path id="Path_669" data-name="Path 669" class="cls-8" d="M83.43,394.44l61.4,33.69,61.55,33.41,123.33,66.37,123.67,65.75,62,32.64,62.11,32.37L516.05,625,454.5,591.56,331.16,525.19,207.49,459.45l-62-32.64Z"/></g></g></g></g><g id="Group_2197" data-name="Group 2197"><g id="Group_2196" data-name="Group 2196"><g class="cls-29"><g id="Group_2195" data-name="Group 2195"><path id="Path_670" data-name="Path 670" class="cls-8" d="M75.16,381.37l62.57,38.46L200.45,458l125.71,76,126.08,75.35L515.4,646.8,578.74,684l-62.56-38.47-62.73-38.19-125.71-76L201.66,456l-63.17-37.45Z"/></g></g></g></g></g></g></g></g><path id="Path_671" data-name="Path 671" class="cls-8" d="M254.7,655.71l38.56-62.52,38.26-62.71,76-125.7,75.33-126.12,37.41-63.21,37.1-63.4L518.8,214.56l-38.26,62.71L404.53,403,329.22,529.1l-37.41,63.21Z"/><path id="Path_672" data-name="Path 672" class="cls-8" d="M246.43,642.63,286.16,585l39.44-57.89L404,411l77.73-116.54L520.34,236l38.32-58.64-39.74,57.68-39.43,57.89L401.1,409,323.38,525.57,284.76,584Z"/><path id="Path_673" data-name="Path 673" class="cls-8" d="M238.16,629.55l40.9-52.85,40.61-53.06,80.77-106.48,80.14-107,39.83-53.65L560,202.69l-40.9,52.84L478.44,308.6,397.68,415.08,317.55,522l-39.83,53.65Z"/><path id="Path_674" data-name="Path 674" class="cls-8" d="M229.89,616.48l42.06-48,41.79-48.25,83.14-96.85L479.42,326l41.06-48.87L561.25,228l-42.06,48-41.78,48.25-83.15,96.86L311.73,518.5l-41.06,48.87Z"/><path id="Path_675" data-name="Path 675" class="cls-8" d="M221.62,603.4l43.21-43.18,43-43.43,85.52-87.24,84.95-87.79,42.28-44.09,42-44.35L519.34,296.5l-43,43.42-85.52,87.25L305.91,515l-42.27,44.09Z"/><path id="Path_676" data-name="Path 676" class="cls-8" d="M213.35,590.32,257.71,552l44.13-38.6,87.89-77.63,87.36-78.21,43.5-39.32,43.26-39.58L519.48,317l-44.13,38.6-87.88,77.63-87.36,78.22-43.5,39.32Z"/><path id="Path_677" data-name="Path 677" class="cls-8" d="M205.08,577.25l45.5-33.51L295.88,510l90.26-68,89.78-68.63,44.72-34.53L565.15,304l-45.51,33.5-45.3,33.78-90.25,68-89.77,68.63-44.73,34.54Z"/><path id="Path_678" data-name="Path 678" class="cls-8" d="M196.81,564.17l46.64-28.67,46.46-29,92.62-58.39,92.2-59.05,45.95-29.76,45.77-30.06L519.8,357.94l-46.45,29L380.73,445.3l-92.2,59.06-45.95,29.76Z"/><path id="Path_679" data-name="Path 679" class="cls-8" d="M188.54,551.09l47.77-23.84,47.61-24.15,95-48.78,94.62-49.46,47.18-25,47-25.29L520,378.43l-47.61,24.14-95,48.79-94.62,49.47-47.18,25Z"/><path id="Path_680" data-name="Path 680" class="cls-8" d="M180.27,538l48.9-19,48.77-19.33,97.34-39.17,97-39.88,48.43-20.2L569,379.91l-48.91,19-48.77,19.33L374,457.43l-97,39.88L228.56,517.5Z"/><path id="Path_681" data-name="Path 681" class="cls-8" d="M172,524.94l50-14.2,49.92-14.52,99.7-29.56,99.48-30.29L520.77,421l49.56-15.74-50,14.2-49.93,14.52L370.69,463.5l-99.47,30.3-49.66,15.41Z"/><path id="Path_682" data-name="Path 682" class="cls-8" d="M163.73,511.86l51.14-9.38L266,492.76,368,472.8l101.9-20.69,50.9-10.62,50.83-10.95-51.14,9.38-51.09,9.71-102,20-101.9,20.7-50.9,10.62Z"/><path id="Path_683" data-name="Path 683" class="cls-8" d="M155.46,498.79l52.26-4.58L260,489.29l104.41-10.35,104.33-11.1L520.83,462l52.1-6.16-52.27,4.57-52.24,4.91L364,475.7,259.69,486.81l-52.14,5.82Z"/><path id="Path_684" data-name="Path 684" class="cls-8" d="M147.19,485.71l53.39.22,53.38-.12,106.76-.75,106.76-1.51,53.37-1,53.37-1.35L520.84,481l-53.39.11-106.76.76-106.76,1.52-53.37,1Z"/><path id="Path_685" data-name="Path 685" class="cls-8" d="M138.92,472.63l54.51,5L248,482.33l109.12,8.83,109.18,8.1,54.61,3.79,54.64,3.44-54.51-5-54.55-4.68L357.34,488l-109.18-8.09-54.61-3.78Z"/><path id="Path_686" data-name="Path 686" class="cls-8" d="M130.65,459.56l55.64,9.8L242,478.83l111.48,18.43L465.08,515l55.84,8.59,55.9,8.26L521.17,522l-55.7-9.48L354,494.11l-111.61-17.7-55.84-8.59Z"/><path id="Path_687" data-name="Path 687" class="cls-8" d="M122.37,446.48l56.79,14.58L236,475.32l113.85,28,114,27.31L521,544.05l57.14,13.08-56.78-14.59-56.86-14.26-113.85-28L236.6,473l-57.07-13.4Z"/><path id="Path_688" data-name="Path 688" class="cls-8" d="M114.11,433.4,172,452.76l58,19.05,116.21,37.61,116.44,36.92L521,564.55l58.4,17.89-57.93-19.36-58-19.05-116.21-37.6L230.8,469.51,172.5,451.3Z"/><path id="Path_689" data-name="Path 689" class="cls-8" d="M105.84,420.33l59.07,24.14,59.2,23.83L342.7,515.5,461.55,562l59.52,23,59.64,22.72-59.08-24.14-59.2-23.84L343.85,512.59,225,466.07l-59.51-23Z"/><path id="Path_690" data-name="Path 690" class="cls-8" d="M97.57,407.25l60.23,28.92,60.37,28.62,121,56.78L460.39,577.7l60.74,27.84L582,633.08l-60.24-28.92L461.4,575.54l-121-56.78L219.18,462.63l-60.74-27.84Z"/><path id="Path_691" data-name="Path 691" class="cls-8" d="M89.3,394.17l61.39,33.69,61.55,33.41,123.33,66.38,123.67,65.74,62,32.64,62.1,32.36L521.91,624.7l-61.55-33.41L337,524.92,213.36,459.19l-62-32.65Z"/><path id="Path_692" data-name="Path 692" class="cls-8" d="M81,381.1l62.56,38.46,62.72,38.2,125.71,76L458.1,609.07l63.17,37.46,63.33,37.18L522,645.24l-62.73-38.19-125.71-76L207.52,455.74l-63.16-37.45Z"/></g></g></g></g></g></g></g></g></g></g></g></svg>