<svg id="Layer_1" data-name="Layer 1" xmlns="http://www.w3.org/2000/svg" viewBox="0 0 43.5 43.5"><g id="dribbble"><path id="Path_103" data-name="Path 103" d="M28.29,23.72A87.25,87.25,0,0,1,33,40.35a22,22,0,0,0,4.09-3.22A21.61,21.61,0,0,0,43.2,25.37,27.14,27.14,0,0,0,28.29,23.72Z"/><path id="Path_104" data-name="Path 104" d="M37.15,6.39l0,0A21.8,21.8,0,0,0,15.15,1,88.14,88.14,0,0,1,24,14.52,50.35,50.35,0,0,0,37.15,6.39Z"/><path id="Path_105" data-name="Path 105" d="M38.86,8.32a53,53,0,0,1-13.64,8.49q1.09,2.21,2.08,4.5a29.74,29.74,0,0,1,16.18,1.42c0-.32,0-.65,0-1A21.59,21.59,0,0,0,38.86,8.32Z"/><path id="Path_106" data-name="Path 106" d="M8.36,38.9a21.82,21.82,0,0,0,22.3,2.7,85.54,85.54,0,0,0-4.91-17.32A27.22,27.22,0,0,0,8.36,38.9Z"/><path id="Path_107" data-name="Path 107" d="M21.34,23.11a28.84,28.84,0,0,1,3.42-1.2c-.62-1.4-1.26-2.78-2-4.14a52.54,52.54,0,0,1-18.4,3.29c-1.47,0-2.94-.06-4.39-.18,0,.29,0,.58,0,.88A21.58,21.58,0,0,0,6.37,37.13h0a29.74,29.74,0,0,1,15-14Z"/><path id="Path_108" data-name="Path 108" d="M21.63,15.47A87.56,87.56,0,0,0,12.63,2,21.78,21.78,0,0,0,.27,18.33c1.36.12,2.75.17,4.14.17A50.09,50.09,0,0,0,21.63,15.47Z"/></g></svg>