<svg id="Layer_1" data-name="Layer 1" xmlns="http://www.w3.org/2000/svg" viewBox="0 0 44 44"><defs><style>.cls-1{fill:#fff;}</style></defs><g id="Group_2258" data-name="Group 2258"><circle id="Ellipse_55" data-name="Ellipse 55" cx="22" cy="22" r="22"/><path id="instagram" class="cls-1" d="M17.11,10.35h9.78a6.78,6.78,0,0,1,6.76,6.76v9.78a6.76,6.76,0,0,1-6.76,6.76H17.11a6.78,6.78,0,0,1-6.76-6.76V17.11a6.76,6.76,0,0,1,6.76-6.76m-.23,2.33a4.2,4.2,0,0,0-4.2,4.2h0V27.13a4.19,4.19,0,0,0,4.19,4.19H27.12a4.2,4.2,0,0,0,4.2-4.19h0V16.88a4.2,4.2,0,0,0-4.19-4.2H16.88m11.23,1.75a1.46,1.46,0,1,1-1.45,1.46h0a1.45,1.45,0,0,1,1.45-1.46M22,16.18A5.82,5.82,0,1,1,16.18,22h0A5.81,5.81,0,0,1,22,16.18m0,2.33A3.49,3.49,0,1,0,25.49,22,3.49,3.49,0,0,0,22,18.51Z"/></g></svg>