<svg id="Layer_1" data-name="Layer 1" xmlns="http://www.w3.org/2000/svg" viewBox="0 0 43 44"><defs><style>.cls-1{fill:#fff;}</style></defs><g id="linkedin"><ellipse id="Ellipse_52" data-name="Ellipse 52" cx="21.5" cy="22" rx="21.5" ry="22"/><g id="Group_42" data-name="Group 42"><path id="Path_109" data-name="Path 109" class="cls-1" d="M35.56,23.53v9.18H30.24V24.15c0-2.15-.77-3.62-2.7-3.62a2.91,2.91,0,0,0-2.73,1.94,3.81,3.81,0,0,0-.17,1.3v8.94H19.32s.07-14.5,0-16h5.32V19l0,.06h0V19a5.29,5.29,0,0,1,4.8-2.64c3.5,0,6.12,2.29,6.12,7.2ZM13.75,9a2.78,2.78,0,0,0-.48,5.53h.45A2.77,2.77,0,0,0,14.2,9,2.26,2.26,0,0,0,13.75,9ZM11.06,32.71h5.31v-16H11.06Z"/></g></g></svg>