<svg id="Layer_1" data-name="Layer 1" xmlns="http://www.w3.org/2000/svg" viewBox="0 0 303.96 62.19"><defs><style>.cls-1{isolation:isolate;}.cls-2{fill:#f2f2f2;}.cls-3{fill:#bfbfbf;}</style></defs><g id="cybersmiths" class="cls-1"><g class="cls-1"><path class="cls-2" d="M13.05,22a13.81,13.81,0,0,1,3.47.44,10,10,0,0,1,3,1.35,6.13,6.13,0,0,1,2,1.93,4.45,4.45,0,0,1,.68,2.38,3.07,3.07,0,0,1-.84,2.32,2.91,2.91,0,0,1-2.13.82,3.44,3.44,0,0,1-2.16-.73,2.51,2.51,0,0,1-.92-2.07,3,3,0,0,1,.7-2.08,3.1,3.1,0,0,1,1.65-1,4.13,4.13,0,0,0-2-1.68,7,7,0,0,0-3-.68,6.41,6.41,0,0,0-2.8.68,7.21,7.21,0,0,0-2.58,2.21,12.08,12.08,0,0,0-1.9,4.2,25.32,25.32,0,0,0-.73,6.63A22.27,22.27,0,0,0,6.55,44.6a8.7,8.7,0,0,0,2.94,4.18,6.88,6.88,0,0,0,4,1.26,8.81,8.81,0,0,0,4.42-1.29,9.52,9.52,0,0,0,3.7-4.48l1.06.39a12.9,12.9,0,0,1-1.85,3.61,10.37,10.37,0,0,1-3.36,3,10.22,10.22,0,0,1-5.09,1.17A11.37,11.37,0,0,1,6.1,50.65a12.5,12.5,0,0,1-4.45-5.12A17.67,17.67,0,0,1,0,37.6a18.79,18.79,0,0,1,1.65-8.09A13.27,13.27,0,0,1,6.27,24,11.94,11.94,0,0,1,13.05,22Z"/><path class="cls-2" d="M52.3,22.82v1.12a3.38,3.38,0,0,0-2,.95,8,8,0,0,0-1.68,3L39.48,51.94h-.95L28.22,27.13a5.51,5.51,0,0,0-2.1-2.66,4.25,4.25,0,0,0-1.7-.47V22.82c.82.11,1.68.2,2.57.25s1.87.09,2.91.09,2.38,0,3.67-.12,2.49-.14,3.61-.22V24a14.33,14.33,0,0,0-2.49.19,1.6,1.6,0,0,0-1.37,1.18A6,6,0,0,0,34,28.7l6.89,17.08-.34.11L46.93,29.2c.71-1.86.78-3.17.22-3.92s-1.83-1.19-3.81-1.34V22.82l2.44.11c.65,0,1.41.06,2.27.06s1.63,0,2.32-.06ZM39.48,51.94l-1.9,4.87a10,10,0,0,1-2.41,3.92A4.81,4.81,0,0,1,33,61.88a9.6,9.6,0,0,1-2.24.31,4.65,4.65,0,0,1-1.93-.39,3.23,3.23,0,0,1-1.37-1.15A3.19,3.19,0,0,1,27,58.83a3,3,0,0,1,.79-2.16A2.89,2.89,0,0,1,30,55.86a3.13,3.13,0,0,1,2,.67,2.36,2.36,0,0,1,.84,2,2.58,2.58,0,0,1-.45,1.57A3.21,3.21,0,0,1,31.3,61a.45.45,0,0,0,.2.06h.14a4,4,0,0,0,2.69-1A8.59,8.59,0,0,0,36.4,56.7l2-5.21Z"/><path class="cls-2" d="M62.38,7.81V48.75L60.9,50l-1.48,1.26L57.9,52.56l-.95-.4a9.51,9.51,0,0,0,.31-1.59,15,15,0,0,0,.08-1.65V14.53a6.29,6.29,0,0,0-.89-3.72c-.6-.8-1.72-1.21-3.36-1.21V8.43c1.19.11,2.35.17,3.47.17a23.91,23.91,0,0,0,3.11-.2A15.72,15.72,0,0,0,62.38,7.81ZM71.12,22a9.38,9.38,0,0,1,7.62,3.78q3,3.78,3,11.45a18.61,18.61,0,0,1-1.71,8.43,11.94,11.94,0,0,1-4.56,5.06,12.07,12.07,0,0,1-6.22,1.68,10.19,10.19,0,0,1-5.4-1.59A9.68,9.68,0,0,1,60,46.12l1.12.61a9.12,9.12,0,0,0,7.73,4.43,6.06,6.06,0,0,0,5.63-3.39q1.88-3.39,1.88-10.5a33.2,33.2,0,0,0-.73-7.56,9.23,9.23,0,0,0-2.24-4.51,5.29,5.29,0,0,0-3.86-1.48A6.54,6.54,0,0,0,64.71,26,11.45,11.45,0,0,0,62,32.84l-.67-.78a12.08,12.08,0,0,1,3.33-7.39A9,9,0,0,1,71.12,22Z"/><path class="cls-2" d="M99.62,22a10,10,0,0,1,7.7,3q2.78,3,2.77,9.33H90.33l-.06-1.07h14.45a18.71,18.71,0,0,0-.45-5.07,8.77,8.77,0,0,0-1.76-3.72,3.93,3.93,0,0,0-3.11-1.4,5.73,5.73,0,0,0-4.57,2.58c-1.32,1.71-2.12,4.44-2.38,8.17l.17.23c-.07.56-.13,1.17-.17,1.84s0,1.35,0,2a15.92,15.92,0,0,0,1.23,6.55,10,10,0,0,0,3.22,4.17A6.91,6.91,0,0,0,101,50.09a9.07,9.07,0,0,0,4.64-1.23,9.38,9.38,0,0,0,3.59-4.37l1.12.45a11.32,11.32,0,0,1-2,3.58,10.74,10.74,0,0,1-3.53,2.83,10.58,10.58,0,0,1-4.92,1.09,12.56,12.56,0,0,1-6.92-1.84,12,12,0,0,1-4.42-5.13A17.44,17.44,0,0,1,87,37.94a21,21,0,0,1,1.56-8.48A12.55,12.55,0,0,1,93,24,11.57,11.57,0,0,1,99.62,22Z"/><path class="cls-2" d="M131.77,22a5.58,5.58,0,0,1,2.66.61,4.89,4.89,0,0,1,1.79,1.6,3.92,3.92,0,0,1,.64,2.21,3.76,3.76,0,0,1-.87,2.46A2.83,2.83,0,0,1,133.67,30a3.1,3.1,0,0,1-2.07-.76,2.65,2.65,0,0,1-.9-2.15,2.88,2.88,0,0,1,.59-1.82,4.84,4.84,0,0,1,1.32-1.21,1.37,1.37,0,0,0-1.18-.56,5.55,5.55,0,0,0-4.09,1.77,12.4,12.4,0,0,0-2.71,4.22,12.28,12.28,0,0,0-1,4.54V45.89c0,1.83.53,3,1.59,3.67a8.64,8.64,0,0,0,4.34.92v1.18l-3.64-.14c-1.57-.06-3.23-.08-5-.08-1.27,0-2.53,0-3.78.08l-2.83.14V50.48a5.07,5.07,0,0,0,3.28-.84c.65-.56,1-1.62,1-3.19V28.92a6.21,6.21,0,0,0-.9-3.72q-.9-1.2-3.36-1.2V22.82c1.19.11,2.35.17,3.47.17a23.91,23.91,0,0,0,3.11-.2,15.14,15.14,0,0,0,2.72-.59v7a15,15,0,0,1,1.76-3.27,10.73,10.73,0,0,1,2.77-2.77A6.16,6.16,0,0,1,131.77,22Z"/><path class="cls-2" d="M149.29,22a9.06,9.06,0,0,1,3.81.72,10.86,10.86,0,0,1,2.3,1.35c1.23,1,2,.33,2.24-2h1.29c-.08,1.05-.14,2.29-.17,3.73s-.06,3.37-.06,5.79h-1.29a17.94,17.94,0,0,0-1.14-4,8.06,8.06,0,0,0-2.38-3.22,6.34,6.34,0,0,0-4.09-1.26,5,5,0,0,0-3.28,1.09,3.93,3.93,0,0,0-1.31,3.22,4.38,4.38,0,0,0,1,2.89,11.48,11.48,0,0,0,2.64,2.24l3.52,2.26a39.24,39.24,0,0,1,5.44,4.2,7.39,7.39,0,0,1,2.24,5.6,6.84,6.84,0,0,1-1.35,4.32,8.44,8.44,0,0,1-3.5,2.63,12.34,12.34,0,0,1-4.73.89,13.13,13.13,0,0,1-2.32-.19,11.24,11.24,0,0,1-2.1-.59A10.65,10.65,0,0,1,144.9,51c-.39-.26-.78-.54-1.15-.84a.66.66,0,0,0-1,0,3.67,3.67,0,0,0-.67,1.87h-1.29c.08-1.19.13-2.65.17-4.37s.06-4,.06-6.83h1.28a32.69,32.69,0,0,0,1.12,5.49,7.58,7.58,0,0,0,2.3,3.67,6.57,6.57,0,0,0,4.37,1.31,5.72,5.72,0,0,0,3.33-1.17c1.1-.79,1.65-2.17,1.65-4.15a5.13,5.13,0,0,0-1.79-4,38.24,38.24,0,0,0-4.54-3.3q-2-1.29-3.78-2.58a11.89,11.89,0,0,1-2.85-2.91A6.84,6.84,0,0,1,141,29.26a6.94,6.94,0,0,1,1.14-4.12,6.84,6.84,0,0,1,3.06-2.35A11,11,0,0,1,149.29,22Z"/><path class="cls-2" d="M182.78,22a9.36,9.36,0,0,1,3.42.56,6.45,6.45,0,0,1,2.41,1.56,6.06,6.06,0,0,1,1.45,2.92,21.18,21.18,0,0,1,.39,4.42v15c0,1.57.33,2.63,1,3.19a5.07,5.07,0,0,0,3.28.84v1.18l-2.91-.14c-1.31-.06-2.58-.08-3.81-.08s-2.44,0-3.61.08l-2.66.14V50.48a4,4,0,0,0,2.85-.84,4.54,4.54,0,0,0,.84-3.19V30.27a20.94,20.94,0,0,0-.22-3.19,4.09,4.09,0,0,0-1.12-2.36,4,4,0,0,0-2.91-.89,6.12,6.12,0,0,0-3.89,1.34,9,9,0,0,0-2.69,3.67,13.1,13.1,0,0,0-1,5.18V46.45a4.54,4.54,0,0,0,.84,3.19,4,4,0,0,0,2.85.84v1.18l-2.66-.14c-1.17-.06-2.38-.08-3.61-.08s-2.5,0-3.81.08l-2.91.14V50.48a5.07,5.07,0,0,0,3.28-.84c.65-.56,1-1.62,1-3.19V28.92a6.21,6.21,0,0,0-.9-3.72q-.9-1.2-3.36-1.2V22.82c1.2.11,2.35.17,3.47.17a23.79,23.79,0,0,0,3.11-.2,15,15,0,0,0,2.72-.59v6.61a10.46,10.46,0,0,1,4-5.21A9.78,9.78,0,0,1,182.78,22Zm16.86,0a9.34,9.34,0,0,1,3.41.56,6.37,6.37,0,0,1,2.41,1.56,6,6,0,0,1,1.46,2.92,21.18,21.18,0,0,1,.39,4.42v15c0,1.57.33,2.63,1,3.19a5,5,0,0,0,3.28.84v1.18l-2.92-.14c-1.3-.06-2.57-.08-3.8-.08s-2.44,0-3.62.08l-2.66.14V50.48a4,4,0,0,0,2.86-.84,4.54,4.54,0,0,0,.84-3.19V30.27a22.3,22.3,0,0,0-.22-3.19,4.16,4.16,0,0,0-1.12-2.36,4,4,0,0,0-2.92-.89,6.5,6.5,0,0,0-5.4,2.91A11.78,11.78,0,0,0,190.45,34l-.16-5.2a9.82,9.82,0,0,1,4.08-5.3A10.78,10.78,0,0,1,199.64,22Z"/><path class="cls-2" d="M223.32,22.2V46.45c0,1.57.33,2.63,1,3.19a5.07,5.07,0,0,0,3.28.84v1.18l-2.88-.14c-1.29-.06-2.59-.08-3.9-.08s-2.55,0-3.86.08l-2.91.14V50.48a5,5,0,0,0,3.27-.84c.66-.56,1-1.62,1-3.19V28.92a6.22,6.22,0,0,0-.89-3.72Q216.49,24,214,24V22.82c1.19.11,2.35.17,3.47.17a23.91,23.91,0,0,0,3.11-.2A14.84,14.84,0,0,0,223.32,22.2ZM220.41,8.82A3.64,3.64,0,0,1,224,12.4a3.59,3.59,0,1,1-6.11-2.52A3.48,3.48,0,0,1,220.41,8.82Z"/><path class="cls-2" d="M239.45,13.52v9.36h8.29V24h-8.29V45.67a5.58,5.58,0,0,0,1,3.69A3.38,3.38,0,0,0,243,50.43,3.8,3.8,0,0,0,246,49.06a11.86,11.86,0,0,0,2.13-4.62l1.12.28A12.83,12.83,0,0,1,247,50.2a5.86,5.86,0,0,1-5.06,2.24,9,9,0,0,1-3.14-.47,6.76,6.76,0,0,1-2.18-1.37,6.94,6.94,0,0,1-1.71-3.08,19.1,19.1,0,0,1-.48-4.76V24H229V22.88h5.37V14.31c.93,0,1.83-.11,2.69-.23A10.24,10.24,0,0,0,239.45,13.52Z"/><path class="cls-2" d="M259.05,7.81v21a9.68,9.68,0,0,1,4.06-5.27A11.05,11.05,0,0,1,268.57,22a9.67,9.67,0,0,1,3.56.56,6.49,6.49,0,0,1,2.38,1.56A6.38,6.38,0,0,1,276,27a18.27,18.27,0,0,1,.45,4.54v15c0,1.57.32,2.63,1,3.19a5,5,0,0,0,3.27.84v1.18l-2.91-.14c-1.31-.06-2.57-.08-3.81-.08s-2.43,0-3.61.08l-2.66.14V50.48a4,4,0,0,0,2.86-.84,4.54,4.54,0,0,0,.84-3.19V30.27a17.45,17.45,0,0,0-.28-3.19,4.19,4.19,0,0,0-1.26-2.36,4.37,4.37,0,0,0-3-.89,6.85,6.85,0,0,0-5.63,2.83,11.52,11.52,0,0,0-2.21,7.3V46.45a4.54,4.54,0,0,0,.84,3.19,4,4,0,0,0,2.86.84v1.18l-2.66-.14c-1.18-.06-2.38-.08-3.61-.08s-2.51,0-3.81.08l-2.91.14V50.48a5,5,0,0,0,3.27-.84c.65-.56,1-1.62,1-3.19V14.53a6.29,6.29,0,0,0-.89-3.72c-.6-.8-1.72-1.21-3.36-1.21V8.43c1.19.11,2.35.17,3.47.17a23.91,23.91,0,0,0,3.11-.2A15.93,15.93,0,0,0,259.05,7.81Z"/><path class="cls-2" d="M293.21,22a9.12,9.12,0,0,1,3.81.72,11.12,11.12,0,0,1,2.3,1.35c1.23,1,2,.33,2.24-2h1.28c-.07,1.05-.13,2.29-.16,3.73s-.06,3.37-.06,5.79h-1.29a18,18,0,0,0-1.15-4,7.88,7.88,0,0,0-2.38-3.22,6.29,6.29,0,0,0-4.08-1.26,5,5,0,0,0-3.28,1.09,3.94,3.94,0,0,0-1.32,3.22,4.39,4.39,0,0,0,1,2.89,11.41,11.41,0,0,0,2.63,2.24l3.53,2.26a38.52,38.52,0,0,1,5.43,4.2A7.35,7.35,0,0,1,304,44.6a6.83,6.83,0,0,1-1.34,4.32,8.5,8.5,0,0,1-3.5,2.63,12.37,12.37,0,0,1-4.73.89,13.33,13.33,0,0,1-2.33-.19,11.69,11.69,0,0,1-2.1-.59,11.61,11.61,0,0,1-1.14-.67,13.53,13.53,0,0,1-1.15-.84.66.66,0,0,0-1,0,3.67,3.67,0,0,0-.67,1.87H284.7c.07-1.19.13-2.65.17-4.37s.05-4,.05-6.83h1.29a32.69,32.69,0,0,0,1.12,5.49,7.58,7.58,0,0,0,2.3,3.67A6.57,6.57,0,0,0,294,51.32a5.72,5.72,0,0,0,3.33-1.17C298.43,49.36,299,48,299,46a5.13,5.13,0,0,0-1.79-4,38.24,38.24,0,0,0-4.54-3.3q-2-1.29-3.78-2.58A11.71,11.71,0,0,1,286,33.18a6.84,6.84,0,0,1-1.1-3.92,7,7,0,0,1,1.15-4.12,6.81,6.81,0,0,1,3.05-2.35A11.09,11.09,0,0,1,293.21,22Z"/></g></g><g id="cybersmiths-2" class="cls-1"><g class="cls-1"><path class="cls-3" d="M13.05,18.13a13.37,13.37,0,0,1,3.47.45,10,10,0,0,1,3,1.34,6.23,6.23,0,0,1,2,1.93,4.47,4.47,0,0,1,.68,2.38,3.09,3.09,0,0,1-.84,2.33,2.94,2.94,0,0,1-2.13.81,3.38,3.38,0,0,1-2.16-.73,2.48,2.48,0,0,1-.92-2.07,3,3,0,0,1,.7-2.07,3.12,3.12,0,0,1,1.65-1,4.24,4.24,0,0,0-2-1.68,7,7,0,0,0-3-.67,6.39,6.39,0,0,0-2.8.67A7.31,7.31,0,0,0,8.06,22a12.26,12.26,0,0,0-1.9,4.2,25.4,25.4,0,0,0-.73,6.64A22.31,22.31,0,0,0,6.55,40.7a8.71,8.71,0,0,0,2.94,4.17,6.88,6.88,0,0,0,4,1.26,8.81,8.81,0,0,0,4.42-1.29,9.52,9.52,0,0,0,3.7-4.48l1.06.39a13,13,0,0,1-1.85,3.62,10.23,10.23,0,0,1-3.36,3,10.11,10.11,0,0,1-5.09,1.18A11.45,11.45,0,0,1,6.1,46.75a12.6,12.6,0,0,1-4.45-5.13A17.66,17.66,0,0,1,0,33.7a18.84,18.84,0,0,1,1.65-8.1,13.18,13.18,0,0,1,4.62-5.48A11.87,11.87,0,0,1,13.05,18.13Z"/><path class="cls-3" d="M52.3,18.91V20a3.4,3.4,0,0,0-2,1,8,8,0,0,0-1.68,3L39.48,48h-.95L28.22,23.23a5.5,5.5,0,0,0-2.1-2.67,4.43,4.43,0,0,0-1.7-.47V18.91c.82.12,1.68.2,2.57.26s1.87.08,2.91.08,2.38,0,3.67-.11l3.61-.23v1.18a13.36,13.36,0,0,0-2.49.2,1.59,1.59,0,0,0-1.37,1.17A6,6,0,0,0,34,24.79l6.89,17.08-.34.12L46.93,25.3c.71-1.87.78-3.18.22-3.92s-1.83-1.2-3.81-1.35V18.91l2.44.12c.65,0,1.41,0,2.27,0s1.63,0,2.32,0ZM39.48,48l-1.9,4.88a10.16,10.16,0,0,1-2.41,3.92A4.7,4.7,0,0,1,33,58a9.1,9.1,0,0,1-2.24.31,4.65,4.65,0,0,1-1.93-.39,3.09,3.09,0,0,1-1.37-1.15A3.17,3.17,0,0,1,27,54.92a2.94,2.94,0,0,1,.79-2.15A2.86,2.86,0,0,1,30,52a3.14,3.14,0,0,1,2,.68,2.35,2.35,0,0,1,.84,2,2.57,2.57,0,0,1-.45,1.56,3.21,3.21,0,0,1-1.07,1,.45.45,0,0,0,.2.06h.14a4,4,0,0,0,2.69-1,8.72,8.72,0,0,0,2.07-3.34l2-5.2Z"/><path class="cls-3" d="M62.38,3.91V44.84L60.9,46.1l-1.48,1.26L57.9,48.65,57,48.26a9.83,9.83,0,0,0,.31-1.6A15,15,0,0,0,57.34,45V10.63a6.33,6.33,0,0,0-.89-3.73q-.9-1.2-3.36-1.2V4.52c1.19.11,2.35.17,3.47.17a23.91,23.91,0,0,0,3.11-.2A15.74,15.74,0,0,0,62.38,3.91Zm8.74,14.22a9.38,9.38,0,0,1,7.62,3.78q3,3.78,3,11.45a18.61,18.61,0,0,1-1.71,8.43,11.91,11.91,0,0,1-4.56,5.07,12.07,12.07,0,0,1-6.22,1.68,10.12,10.12,0,0,1-5.4-1.6A9.63,9.63,0,0,1,60,42.21l1.12.62a9.21,9.21,0,0,0,3.48,3.33,9,9,0,0,0,4.25,1.09,6.06,6.06,0,0,0,5.63-3.39q1.88-3.39,1.88-10.5a33.32,33.32,0,0,0-.73-7.56,9.27,9.27,0,0,0-2.24-4.51,5.29,5.29,0,0,0-3.86-1.48,6.54,6.54,0,0,0-4.79,2.32A11.46,11.46,0,0,0,62,28.94l-.67-.79a12.1,12.1,0,0,1,3.33-7.39A9,9,0,0,1,71.12,18.13Z"/><path class="cls-3" d="M99.62,18.13a10,10,0,0,1,7.7,3q2.78,3,2.77,9.32H90.33l-.06-1.06h14.45a18.71,18.71,0,0,0-.45-5.07,8.82,8.82,0,0,0-1.76-3.73,3.93,3.93,0,0,0-3.11-1.4,5.73,5.73,0,0,0-4.57,2.58c-1.32,1.72-2.12,4.44-2.38,8.18l.17.22c-.07.56-.13,1.18-.17,1.85s0,1.34,0,2a16,16,0,0,0,1.23,6.56,10,10,0,0,0,3.22,4.17A7,7,0,0,0,101,46.19,9.08,9.08,0,0,0,105.61,45a9.35,9.35,0,0,0,3.59-4.36l1.12.44a11.37,11.37,0,0,1-2,3.59,10.87,10.87,0,0,1-3.53,2.83,10.71,10.71,0,0,1-4.92,1.09,12.57,12.57,0,0,1-6.92-1.85,11.92,11.92,0,0,1-4.42-5.13A17.44,17.44,0,0,1,87,34a21,21,0,0,1,1.56-8.48A12.55,12.55,0,0,1,93,20.06,11.57,11.57,0,0,1,99.62,18.13Z"/><path class="cls-3" d="M131.77,18.13a5.59,5.59,0,0,1,2.66.62,4.87,4.87,0,0,1,1.79,1.59,3.92,3.92,0,0,1,.64,2.21A3.78,3.78,0,0,1,136,25a2.82,2.82,0,0,1-2.32,1.06,3.14,3.14,0,0,1-2.07-.75,2.68,2.68,0,0,1-.9-2.16,2.88,2.88,0,0,1,.59-1.82,4.8,4.8,0,0,1,1.32-1.2,1.35,1.35,0,0,0-1.18-.56,5.54,5.54,0,0,0-4.09,1.76,12.54,12.54,0,0,0-2.71,4.23,12.2,12.2,0,0,0-1,4.53V42c0,1.82.53,3,1.59,3.66a8.63,8.63,0,0,0,4.34.93v1.17l-3.64-.14c-1.57,0-3.23-.08-5-.08-1.27,0-2.53,0-3.78.08l-2.83.14V46.58a5.07,5.07,0,0,0,3.28-.84c.65-.56,1-1.63,1-3.19V25a6.27,6.27,0,0,0-.9-3.73q-.9-1.2-3.36-1.2V18.91a34.57,34.57,0,0,0,3.47.17,23.94,23.94,0,0,0,3.11-.19,16.05,16.05,0,0,0,2.72-.59v7A15,15,0,0,1,125.41,22a10.89,10.89,0,0,1,2.77-2.77A6.16,6.16,0,0,1,131.77,18.13Z"/><path class="cls-3" d="M149.29,18.13a8.9,8.9,0,0,1,3.81.73,10.48,10.48,0,0,1,2.3,1.34q1.84,1.52,2.24-2h1.29c-.08,1-.14,2.28-.17,3.72s-.06,3.37-.06,5.8h-1.29a17.88,17.88,0,0,0-1.14-4,8.13,8.13,0,0,0-2.38-3.22,6.34,6.34,0,0,0-4.09-1.26,5,5,0,0,0-3.28,1.1,3.92,3.92,0,0,0-1.31,3.22,4.34,4.34,0,0,0,1,2.88,11.48,11.48,0,0,0,2.64,2.24l3.52,2.27a37.76,37.76,0,0,1,5.44,4.2,7.37,7.37,0,0,1,2.24,5.6A6.81,6.81,0,0,1,158.7,45a8.35,8.35,0,0,1-3.5,2.63,12.15,12.15,0,0,1-4.73.9,13.1,13.1,0,0,1-2.32-.2,11.24,11.24,0,0,1-2.1-.59,9.22,9.22,0,0,1-1.15-.67c-.39-.26-.78-.54-1.15-.84a.66.66,0,0,0-1,0,3.72,3.72,0,0,0-.67,1.88h-1.29c.08-1.2.13-2.66.17-4.37s.06-4,.06-6.83h1.28a32.35,32.35,0,0,0,1.12,5.48,7.53,7.53,0,0,0,2.3,3.67,6.57,6.57,0,0,0,4.37,1.32,5.66,5.66,0,0,0,3.33-1.18q1.65-1.17,1.65-4.14a5.14,5.14,0,0,0-1.79-4,38.24,38.24,0,0,0-4.54-3.3q-2-1.29-3.78-2.57a11.75,11.75,0,0,1-2.85-2.92A6.84,6.84,0,0,1,141,25.35a6.89,6.89,0,0,1,1.14-4.11,6.7,6.7,0,0,1,3.06-2.35A10.81,10.81,0,0,1,149.29,18.13Z"/><path class="cls-3" d="M182.78,18.13a9.58,9.58,0,0,1,3.42.56,6.47,6.47,0,0,1,2.41,1.57,6,6,0,0,1,1.45,2.91,21.18,21.18,0,0,1,.39,4.42v15c0,1.56.33,2.63,1,3.19a5.07,5.07,0,0,0,3.28.84v1.17l-2.91-.14c-1.31,0-2.58-.08-3.81-.08s-2.44,0-3.61.08l-2.66.14V46.58a4,4,0,0,0,2.85-.84,4.56,4.56,0,0,0,.84-3.19V26.36a20.94,20.94,0,0,0-.22-3.19,4.1,4.1,0,0,0-1.12-2.35,4,4,0,0,0-2.91-.9,6.08,6.08,0,0,0-3.89,1.35,8.89,8.89,0,0,0-2.69,3.66,13.1,13.1,0,0,0-1,5.18V42.55a4.56,4.56,0,0,0,.84,3.19,4,4,0,0,0,2.85.84v1.17l-2.66-.14c-1.17,0-2.38-.08-3.61-.08s-2.5,0-3.81.08l-2.91.14V46.58a5.07,5.07,0,0,0,3.28-.84c.65-.56,1-1.63,1-3.19V25a6.27,6.27,0,0,0-.9-3.73q-.9-1.2-3.36-1.2V18.91a34.71,34.71,0,0,0,3.47.17,23.83,23.83,0,0,0,3.11-.19,15.84,15.84,0,0,0,2.72-.59v6.61a10.37,10.37,0,0,1,4-5.21A9.7,9.7,0,0,1,182.78,18.13Zm16.86,0a9.56,9.56,0,0,1,3.41.56,6.39,6.39,0,0,1,2.41,1.57,6,6,0,0,1,1.46,2.91,21.18,21.18,0,0,1,.39,4.42v15c0,1.56.33,2.63,1,3.19a5,5,0,0,0,3.28.84v1.17l-2.92-.14c-1.3,0-2.57-.08-3.8-.08s-2.44,0-3.62.08l-2.66.14V46.58a4,4,0,0,0,2.86-.84,4.56,4.56,0,0,0,.84-3.19V26.36a22.3,22.3,0,0,0-.22-3.19,4.16,4.16,0,0,0-1.12-2.35,4,4,0,0,0-2.92-.9,6.5,6.5,0,0,0-5.4,2.91,11.79,11.79,0,0,0-2.16,7.23l-.16-5.21a9.76,9.76,0,0,1,4.08-5.29A10.69,10.69,0,0,1,199.64,18.13Z"/><path class="cls-3" d="M223.32,18.3V42.55c0,1.56.33,2.63,1,3.19a5.07,5.07,0,0,0,3.28.84v1.17l-2.88-.14c-1.29,0-2.59-.08-3.9-.08s-2.55,0-3.86.08l-2.91.14V46.58a5,5,0,0,0,3.27-.84c.66-.56,1-1.63,1-3.19V25a6.27,6.27,0,0,0-.89-3.73q-.9-1.2-3.36-1.2V18.91a34.57,34.57,0,0,0,3.47.17,23.94,23.94,0,0,0,3.11-.19A15.72,15.72,0,0,0,223.32,18.3ZM220.41,4.91A3.45,3.45,0,0,1,222.93,6a3.5,3.5,0,0,1,0,5,3.53,3.53,0,0,1-5,0,3.53,3.53,0,0,1,0-5A3.45,3.45,0,0,1,220.41,4.91Z"/><path class="cls-3" d="M239.45,9.62V19h8.29v1.12h-8.29V41.76a5.6,5.6,0,0,0,1,3.7A3.37,3.37,0,0,0,243,46.52,3.8,3.8,0,0,0,246,45.15a11.86,11.86,0,0,0,2.13-4.62l1.12.28A12.87,12.87,0,0,1,247,46.3a5.88,5.88,0,0,1-5.06,2.24,8.75,8.75,0,0,1-3.14-.48,6.6,6.6,0,0,1-2.18-1.37,6.94,6.94,0,0,1-1.71-3.08,19,19,0,0,1-.48-4.76V20.09H229V19h5.37V10.4c.93,0,1.83-.11,2.69-.22A11.4,11.4,0,0,0,239.45,9.62Z"/><path class="cls-3" d="M259.05,3.91V24.85a9.65,9.65,0,0,1,4.06-5.26,11,11,0,0,1,5.46-1.46,9.88,9.88,0,0,1,3.56.56,6.51,6.51,0,0,1,2.38,1.57,6.33,6.33,0,0,1,1.51,2.8,18.18,18.18,0,0,1,.45,4.53v15c0,1.56.32,2.63,1,3.19a5,5,0,0,0,3.27.84v1.17l-2.91-.14c-1.31,0-2.57-.08-3.81-.08s-2.43,0-3.61.08l-2.66.14V46.58a4,4,0,0,0,2.86-.84,4.56,4.56,0,0,0,.84-3.19V26.36a17.45,17.45,0,0,0-.28-3.19,4.19,4.19,0,0,0-1.26-2.35,4.32,4.32,0,0,0-3-.9,6.85,6.85,0,0,0-5.63,2.83,11.55,11.55,0,0,0-2.21,7.31V42.55a4.56,4.56,0,0,0,.84,3.19,4,4,0,0,0,2.86.84v1.17l-2.66-.14c-1.18,0-2.38-.08-3.61-.08s-2.51,0-3.81.08l-2.91.14V46.58a5,5,0,0,0,3.27-.84c.65-.56,1-1.63,1-3.19V10.63a6.33,6.33,0,0,0-.89-3.73q-.9-1.2-3.36-1.2V4.52c1.19.11,2.35.17,3.47.17a23.91,23.91,0,0,0,3.11-.2A16,16,0,0,0,259.05,3.91Z"/><path class="cls-3" d="M293.21,18.13a9,9,0,0,1,3.81.73,10.73,10.73,0,0,1,2.3,1.34c1.23,1,2,.34,2.24-2h1.28c-.07,1-.13,2.28-.16,3.72s-.06,3.37-.06,5.8h-1.29a17.9,17.9,0,0,0-1.15-4,8,8,0,0,0-2.38-3.22,6.29,6.29,0,0,0-4.08-1.26,5,5,0,0,0-3.28,1.1,3.93,3.93,0,0,0-1.32,3.22,4.34,4.34,0,0,0,1,2.88,11.41,11.41,0,0,0,2.63,2.24c1.09.69,2.26,1.45,3.53,2.27a37.09,37.09,0,0,1,5.43,4.2A7.34,7.34,0,0,1,304,40.7,6.8,6.8,0,0,1,302.62,45a8.42,8.42,0,0,1-3.5,2.63,12.19,12.19,0,0,1-4.73.9,13.3,13.3,0,0,1-2.33-.2,11.69,11.69,0,0,1-2.1-.59,9.91,9.91,0,0,1-1.14-.67,13.53,13.53,0,0,1-1.15-.84.66.66,0,0,0-1,0,3.72,3.72,0,0,0-.67,1.88H284.7c.07-1.2.13-2.66.17-4.37s.05-4,.05-6.83h1.29a32.35,32.35,0,0,0,1.12,5.48,7.53,7.53,0,0,0,2.3,3.67A6.57,6.57,0,0,0,294,47.42a5.66,5.66,0,0,0,3.33-1.18Q299,45.07,299,42.1a5.14,5.14,0,0,0-1.79-4,38.24,38.24,0,0,0-4.54-3.3q-2-1.29-3.78-2.57A11.58,11.58,0,0,1,286,29.27a6.84,6.84,0,0,1-1.1-3.92,6.89,6.89,0,0,1,1.15-4.11,6.67,6.67,0,0,1,3.05-2.35A10.89,10.89,0,0,1,293.21,18.13Z"/></g></g><g id="cybersmiths-3" class="cls-1"><g class="cls-1"><path d="M13.05,14.22a13.37,13.37,0,0,1,3.47.45,10,10,0,0,1,3,1.35,6.13,6.13,0,0,1,2,1.93,4.45,4.45,0,0,1,.68,2.38,3.07,3.07,0,0,1-.84,2.32,2.94,2.94,0,0,1-2.13.81,3.43,3.43,0,0,1-2.16-.72,2.51,2.51,0,0,1-.92-2.08,3,3,0,0,1,.7-2.07,3.12,3.12,0,0,1,1.65-1,4.24,4.24,0,0,0-2-1.68,7.19,7.19,0,0,0-3-.67,6.53,6.53,0,0,0-2.8.67,7.35,7.35,0,0,0-2.58,2.22,12.08,12.08,0,0,0-1.9,4.2A25.32,25.32,0,0,0,5.43,29a22.27,22.27,0,0,0,1.12,7.84A8.71,8.71,0,0,0,9.49,41a6.88,6.88,0,0,0,4,1.26,8.9,8.9,0,0,0,4.42-1.28,9.57,9.57,0,0,0,3.7-4.48l1.06.39a12.9,12.9,0,0,1-1.85,3.61,10.37,10.37,0,0,1-3.36,3,10.22,10.22,0,0,1-5.09,1.17A11.45,11.45,0,0,1,6.1,42.84a12.5,12.5,0,0,1-4.45-5.12A17.7,17.7,0,0,1,0,29.79,18.76,18.76,0,0,1,1.65,21.7a13.27,13.27,0,0,1,4.62-5.49A12,12,0,0,1,13.05,14.22Z"/><path d="M52.3,15v1.12a3.32,3.32,0,0,0-2,.95,8,8,0,0,0-1.68,3L39.48,44.13h-.95L28.22,19.32a5.46,5.46,0,0,0-2.1-2.66,4.3,4.3,0,0,0-1.7-.48V15c.82.11,1.68.19,2.57.25s1.87.08,2.91.08,2.38,0,3.67-.11L37.18,15v1.17a14.27,14.27,0,0,0-2.49.2,1.59,1.59,0,0,0-1.37,1.18A6,6,0,0,0,34,20.89L40.88,38l-.34.11,6.39-16.69c.71-1.86.78-3.17.22-3.92s-1.83-1.19-3.81-1.34V15c1,0,1.79.07,2.44.11s1.41.06,2.27.06,1.63,0,2.32-.06ZM39.48,44.13,37.58,49a10,10,0,0,1-2.41,3.92A4.81,4.81,0,0,1,33,54.07a9.6,9.6,0,0,1-2.24.31,4.66,4.66,0,0,1-1.93-.4,3.14,3.14,0,0,1-1.37-1.14A3.21,3.21,0,0,1,27,51a3,3,0,0,1,.79-2.16A2.89,2.89,0,0,1,30,48.05a3.13,3.13,0,0,1,2,.67,2.36,2.36,0,0,1,.84,2,2.6,2.6,0,0,1-.45,1.57,3.21,3.21,0,0,1-1.07,1,.45.45,0,0,0,.2.06h.14a4,4,0,0,0,2.69-1,8.59,8.59,0,0,0,2.07-3.33l2-5.21Z"/><path d="M62.38,0V40.94L60.9,42.2c-.5.42-1,.84-1.48,1.26L57.9,44.74,57,44.35a9.51,9.51,0,0,0,.31-1.59,15.25,15.25,0,0,0,.08-1.66V6.72A6.29,6.29,0,0,0,56.45,3c-.6-.81-1.72-1.21-3.36-1.21V.62c1.19.11,2.35.16,3.47.16A23.94,23.94,0,0,0,59.67.59,15.72,15.72,0,0,0,62.38,0Zm8.74,14.22A9.38,9.38,0,0,1,78.74,18q3,3.78,3,11.46a18.57,18.57,0,0,1-1.71,8.42A11.91,11.91,0,0,1,75.49,43a12.07,12.07,0,0,1-6.22,1.68A10.19,10.19,0,0,1,63.87,43,9.7,9.7,0,0,1,60,38.3l1.12.62a9.21,9.21,0,0,0,3.48,3.33,9,9,0,0,0,4.25,1.09A6.07,6.07,0,0,0,74.45,40q1.88-3.39,1.88-10.5a33.2,33.2,0,0,0-.73-7.56,9.23,9.23,0,0,0-2.24-4.51A5.29,5.29,0,0,0,69.5,15.9a6.55,6.55,0,0,0-4.79,2.33A11.43,11.43,0,0,0,62,25l-.67-.78a12.08,12.08,0,0,1,3.33-7.39A9,9,0,0,1,71.12,14.22Z"/><path d="M99.62,14.22a10,10,0,0,1,7.7,3q2.78,3,2.77,9.32H90.33l-.06-1.06h14.45a18.71,18.71,0,0,0-.45-5.07,8.72,8.72,0,0,0-1.76-3.72,3.9,3.9,0,0,0-3.11-1.4,5.74,5.74,0,0,0-4.57,2.57c-1.32,1.72-2.12,4.45-2.38,8.18l.17.22c-.07.56-.13,1.18-.17,1.85s0,1.35,0,2a15.92,15.92,0,0,0,1.23,6.55,10,10,0,0,0,3.22,4.17A7,7,0,0,0,101,42.28a9.07,9.07,0,0,0,4.64-1.23,9.38,9.38,0,0,0,3.59-4.37l1.12.45a11.43,11.43,0,0,1-2,3.58,10.74,10.74,0,0,1-3.53,2.83,10.58,10.58,0,0,1-4.92,1.09,12.48,12.48,0,0,1-6.92-1.85,12,12,0,0,1-4.42-5.12A17.47,17.47,0,0,1,87,30.13a21,21,0,0,1,1.56-8.49A12.47,12.47,0,0,1,93,16.16,11.57,11.57,0,0,1,99.62,14.22Z"/><path d="M131.77,14.22a5.59,5.59,0,0,1,2.66.62,4.8,4.8,0,0,1,1.79,1.6,3.92,3.92,0,0,1,.64,2.21,3.78,3.78,0,0,1-.87,2.46,2.83,2.83,0,0,1-2.32,1.07,3.15,3.15,0,0,1-2.07-.76,2.65,2.65,0,0,1-.9-2.16,2.9,2.9,0,0,1,.59-1.82,5,5,0,0,1,1.32-1.2,1.37,1.37,0,0,0-1.18-.56,5.57,5.57,0,0,0-4.09,1.76,12.54,12.54,0,0,0-2.71,4.23,12.24,12.24,0,0,0-1,4.54V38.08c0,1.83.53,3.05,1.59,3.67a8.75,8.75,0,0,0,4.34.92v1.18c-.86,0-2.07-.09-3.64-.14s-3.23-.09-5-.09q-1.9,0-3.78.09c-1.25,0-2.2.1-2.83.14V42.67a5.07,5.07,0,0,0,3.28-.84c.65-.56,1-1.62,1-3.19V21.11a6.21,6.21,0,0,0-.9-3.72c-.6-.81-1.72-1.21-3.36-1.21V15c1.19.11,2.35.17,3.47.17a23.91,23.91,0,0,0,3.11-.2,16.05,16.05,0,0,0,2.72-.59v7a15,15,0,0,1,1.76-3.27,10.77,10.77,0,0,1,2.77-2.78A6.23,6.23,0,0,1,131.77,14.22Z"/><path d="M149.29,14.22a9.05,9.05,0,0,1,3.81.73,10.86,10.86,0,0,1,2.3,1.35q1.84,1.5,2.24-2h1.29c-.08,1.05-.14,2.29-.17,3.72s-.06,3.37-.06,5.8h-1.29a17.94,17.94,0,0,0-1.14-4,8.06,8.06,0,0,0-2.38-3.22,6.34,6.34,0,0,0-4.09-1.26,5,5,0,0,0-3.28,1.09,3.93,3.93,0,0,0-1.31,3.22,4.34,4.34,0,0,0,1,2.88,11.24,11.24,0,0,0,2.64,2.24L152.37,27a37.76,37.76,0,0,1,5.44,4.2,7.39,7.39,0,0,1,2.24,5.6,6.79,6.79,0,0,1-1.35,4.31,8.38,8.38,0,0,1-3.5,2.64,12.34,12.34,0,0,1-4.73.89,13.13,13.13,0,0,1-2.32-.19,12.06,12.06,0,0,1-2.1-.59,10.65,10.65,0,0,1-1.15-.67c-.39-.26-.78-.55-1.15-.84a.67.67,0,0,0-1,0,3.76,3.76,0,0,0-.67,1.88h-1.29c.08-1.2.13-2.65.17-4.37s.06-4,.06-6.83h1.28a32.69,32.69,0,0,0,1.12,5.49,7.58,7.58,0,0,0,2.3,3.67,6.63,6.63,0,0,0,4.37,1.31,5.72,5.72,0,0,0,3.33-1.17c1.1-.79,1.65-2.17,1.65-4.15a5.13,5.13,0,0,0-1.79-4,37.14,37.14,0,0,0-4.54-3.3q-2-1.29-3.78-2.58a11.89,11.89,0,0,1-2.85-2.91A6.84,6.84,0,0,1,141,21.45a6.94,6.94,0,0,1,1.14-4.12A6.77,6.77,0,0,1,145.21,15,11,11,0,0,1,149.29,14.22Z"/><path d="M182.78,14.22a9.58,9.58,0,0,1,3.42.56,6.59,6.59,0,0,1,2.41,1.57,6.07,6.07,0,0,1,1.45,2.91,21.28,21.28,0,0,1,.39,4.43v15c0,1.57.33,2.63,1,3.19a5.07,5.07,0,0,0,3.28.84v1.18c-.64,0-1.61-.09-2.91-.14s-2.58-.09-3.81-.09-2.44,0-3.61.09-2.07.1-2.66.14V42.67a4,4,0,0,0,2.85-.84,4.54,4.54,0,0,0,.84-3.19V22.46a21.17,21.17,0,0,0-.22-3.2,4.1,4.1,0,0,0-1.12-2.35,4,4,0,0,0-2.91-.89,6.07,6.07,0,0,0-3.89,1.34A9,9,0,0,0,174.58,21a13.07,13.07,0,0,0-1,5.18V38.64a4.54,4.54,0,0,0,.84,3.19,4,4,0,0,0,2.85.84v1.18c-.59,0-1.48-.09-2.66-.14s-2.38-.09-3.61-.09-2.5,0-3.81.09-2.27.1-2.91.14V42.67a5.07,5.07,0,0,0,3.28-.84c.65-.56,1-1.62,1-3.19V21.11a6.21,6.21,0,0,0-.9-3.72c-.6-.81-1.72-1.21-3.36-1.21V15c1.2.11,2.35.17,3.47.17a23.79,23.79,0,0,0,3.11-.2,15.84,15.84,0,0,0,2.72-.59V21a10.41,10.41,0,0,1,4-5.21A9.79,9.79,0,0,1,182.78,14.22Zm16.86,0a9.56,9.56,0,0,1,3.41.56,6.51,6.51,0,0,1,2.41,1.57,6,6,0,0,1,1.46,2.91,21.28,21.28,0,0,1,.39,4.43v15c0,1.57.33,2.63,1,3.19a5,5,0,0,0,3.28.84v1.18c-.64,0-1.61-.09-2.92-.14s-2.57-.09-3.8-.09-2.44,0-3.62.09-2.06.1-2.66.14V42.67a4,4,0,0,0,2.86-.84,4.54,4.54,0,0,0,.84-3.19V22.46a22.55,22.55,0,0,0-.22-3.2,4.16,4.16,0,0,0-1.12-2.35A4,4,0,0,0,198,16a6.5,6.5,0,0,0-5.4,2.91,11.78,11.78,0,0,0-2.16,7.22l-.16-5.21a9.8,9.8,0,0,1,4.08-5.29A10.8,10.8,0,0,1,199.64,14.22Z"/><path d="M223.32,14.39V38.64c0,1.57.33,2.63,1,3.19a5.07,5.07,0,0,0,3.28.84v1.18c-.63,0-1.6-.09-2.88-.14s-2.59-.09-3.9-.09-2.55,0-3.86.09-2.28.1-2.91.14V42.67a5,5,0,0,0,3.27-.84c.66-.56,1-1.62,1-3.19V21.11a6.22,6.22,0,0,0-.89-3.72c-.6-.81-1.72-1.21-3.36-1.21V15c1.19.11,2.35.17,3.47.17a23.91,23.91,0,0,0,3.11-.2A15.72,15.72,0,0,0,223.32,14.39ZM220.41,1a3.44,3.44,0,0,1,2.52,1.06,3.5,3.5,0,0,1,0,5,3.5,3.5,0,0,1-5,0,3.44,3.44,0,0,1-1.06-2.52,3.44,3.44,0,0,1,1.06-2.52A3.44,3.44,0,0,1,220.41,1Z"/><path d="M239.45,5.71v9.35h8.29v1.12h-8.29V37.86a5.58,5.58,0,0,0,1,3.69A3.38,3.38,0,0,0,243,42.62,3.78,3.78,0,0,0,246,41.24a11.72,11.72,0,0,0,2.13-4.62l1.12.28A12.82,12.82,0,0,1,247,42.39a5.88,5.88,0,0,1-5.06,2.24,9,9,0,0,1-3.14-.47,6.62,6.62,0,0,1-2.18-1.38,6.89,6.89,0,0,1-1.71-3.08,19,19,0,0,1-.48-4.76V16.18H229V15.06h5.37V6.5c.93,0,1.83-.12,2.69-.23A10.79,10.79,0,0,0,239.45,5.71Z"/><path d="M259.05,0V20.94a9.69,9.69,0,0,1,4.06-5.26,11.06,11.06,0,0,1,5.46-1.46,9.88,9.88,0,0,1,3.56.56,6.64,6.64,0,0,1,2.38,1.57,6.38,6.38,0,0,1,1.51,2.8,18.22,18.22,0,0,1,.45,4.54v15c0,1.57.32,2.63,1,3.19a5,5,0,0,0,3.27.84v1.18c-.63,0-1.6-.09-2.91-.14s-2.57-.09-3.81-.09-2.43,0-3.61.09-2.06.1-2.66.14V42.67a4,4,0,0,0,2.86-.84,4.54,4.54,0,0,0,.84-3.19V22.46a17.65,17.65,0,0,0-.28-3.2,4.19,4.19,0,0,0-1.26-2.35,4.32,4.32,0,0,0-3-.89,6.86,6.86,0,0,0-5.63,2.82,11.57,11.57,0,0,0-2.21,7.31V38.64a4.54,4.54,0,0,0,.84,3.19,4,4,0,0,0,2.86.84v1.18c-.6,0-1.49-.09-2.66-.14s-2.38-.09-3.61-.09-2.51,0-3.81.09-2.28.1-2.91.14V42.67a5,5,0,0,0,3.27-.84c.65-.56,1-1.62,1-3.19V6.72A6.29,6.29,0,0,0,253.12,3c-.6-.81-1.72-1.21-3.36-1.21V.62c1.19.11,2.35.16,3.47.16a23.94,23.94,0,0,0,3.11-.19A15.93,15.93,0,0,0,259.05,0Z"/><path d="M293.21,14.22A9.12,9.12,0,0,1,297,15a11.12,11.12,0,0,1,2.3,1.35c1.23,1,2,.33,2.24-2h1.28c-.07,1.05-.13,2.29-.16,3.72s-.06,3.37-.06,5.8h-1.29a18,18,0,0,0-1.15-4,7.88,7.88,0,0,0-2.38-3.22,6.29,6.29,0,0,0-4.08-1.26,5,5,0,0,0-3.28,1.09,3.94,3.94,0,0,0-1.32,3.22,4.34,4.34,0,0,0,1,2.88,11.18,11.18,0,0,0,2.63,2.24L296.29,27a37.09,37.09,0,0,1,5.43,4.2,7.35,7.35,0,0,1,2.24,5.6,6.78,6.78,0,0,1-1.34,4.31,8.44,8.44,0,0,1-3.5,2.64,12.37,12.37,0,0,1-4.73.89,13.33,13.33,0,0,1-2.33-.19,12.58,12.58,0,0,1-2.1-.59,11.61,11.61,0,0,1-1.14-.67c-.4-.26-.78-.55-1.15-.84a.67.67,0,0,0-1,0,3.76,3.76,0,0,0-.67,1.88H284.7c.07-1.2.13-2.65.17-4.37s.05-4,.05-6.83h1.29a32.69,32.69,0,0,0,1.12,5.49,7.58,7.58,0,0,0,2.3,3.67A6.63,6.63,0,0,0,294,43.51a5.72,5.72,0,0,0,3.33-1.17c1.1-.79,1.65-2.17,1.65-4.15a5.13,5.13,0,0,0-1.79-4,37.14,37.14,0,0,0-4.54-3.3q-2-1.29-3.78-2.58A11.71,11.71,0,0,1,286,25.37a6.84,6.84,0,0,1-1.1-3.92,7,7,0,0,1,1.15-4.12A6.74,6.74,0,0,1,289.12,15,11.09,11.09,0,0,1,293.21,14.22Z"/></g></g></svg>